<svg
  xmlns="http://www.w3.org/2000/svg"
  width="64"
  height="56"
  viewBox="1.7320508 1.7320508 6.93 5.4"
  stroke-width="0.1"
>
  <g transform="translate(1.732,2)" fill="#000" stroke="#161616">
    <path
      d="M 1.7321017,1 0,2.0000001 -1.732,1 V -0.99999975 L 5.078e-5,-2 1.732,-0.99999975 Z"
    />
    <path
      d="M 3.4641018,4 1.732,5.0000001 0,4 V 2.0000002 L 1.7320508,1 3.4640001,2.0000002 Z"
    />
    <path
      d="M 6.9284898,4.0004557 5.196388,5.0004558 3.464388,4.0004557 V 2.0004559 L 5.1964388,1.0004557 6.9283881,2.0004559 Z"
    />
    <path
      d="M 5.196388,7 3.4642862,8.0000001 1.7322862,7 V 5.0000002 L 3.464337,4 5.1962863,5.0000002 Z"
    />
    <path
      d="M 1.7321018,7 -3e-8,8.0000001 -1.732,7 V 5.0000002 L 5.077e-5,4 1.7320001,5.0000002 Z"
    />
    <path
      d="M 5.1961018,1 3.464,2.0000001 1.732,1 V -0.9999998 L 3.4640508,-2 5.1960001,-0.9999998 Z"
    />
    <path
      d="M 8.6601018,0.99999998 6.928,2.0000001 5.196,0.99999998 V -0.9999998 L 6.9280508,-2 8.6600001,-0.9999998 Z"
    />
    <path
      d="M 8.6601018,7 6.928,8.0000001 5.196,7 V 5.0000002 L 6.9280508,4 8.6600001,5.0000002 Z"
    />
  </g>
</svg>
